<?xml version="1.0" encoding="utf-8"?>
<svg width="32px" height="32px" viewBox="0 0 32 32" version="1.1" xmlns:xlink="http://www.w3.org/1999/xlink" xmlns="http://www.w3.org/2000/svg">
  <defs>
    <path d="M0 0L32 0L32 32L0 32L0 0Z" id="path_1" />
    <clipPath id="clip_1">
      <use xlink:href="#path_1" />
    </clipPath>
  </defs>
  <g id="cassette-2-svgrepo-com" clip-path="url(#clip_1)">
    <path d="M0 0L32 0L32 32L0 32L0 0Z" id="cassette-2-svgrepo-com" fill="none" fill-rule="evenodd" stroke="none" />
    <path d="M6.319 4L25.6542 4Q25.7769 4 25.8995 4.00602Q26.0221 4.01204 26.1442 4.02407Q26.2663 4.0361 26.3877 4.05411Q26.5091 4.07211 26.6295 4.09605Q26.7498 4.12 26.8689 4.14981Q26.9879 4.17963 27.1053 4.21526Q27.2228 4.25088 27.3383 4.29222Q27.4539 4.33356 27.5672 4.38053Q27.6806 4.42749 27.7915 4.47996Q27.9025 4.53243 28.0107 4.59028Q28.1189 4.64812 28.2242 4.71121Q28.3295 4.7743 28.4315 4.84248Q28.5335 4.91066 28.6321 4.98377Q28.7307 5.05687 28.8255 5.13472Q28.9204 5.21257 29.0113 5.29499Q29.1022 5.3774 29.189 5.46417Q29.2758 5.55095 29.3582 5.64188Q29.4406 5.73281 29.5185 5.82767Q29.5963 5.92253 29.6694 6.0211Q29.7425 6.11967 29.8107 6.2217Q29.8789 6.32374 29.942 6.429Q30.0051 6.53426 30.0629 6.64249Q30.1208 6.75072 30.1732 6.86165Q30.2257 6.97259 30.2727 7.08597Q30.3196 7.19934 30.361 7.31489Q30.4023 7.43043 30.4379 7.54787Q30.4736 7.6653 30.5034 7.78434Q30.5332 7.90338 30.5571 8.02374Q30.5811 8.1441 30.5991 8.26549Q30.6171 8.38688 30.6291 8.50901Q30.6412 8.63114 30.6472 8.75371Q30.6532 8.87628 30.6532 8.999L30.6532 23.001Q30.6532 23.1237 30.6472 23.2463Q30.6412 23.3689 30.6291 23.491Q30.6171 23.6131 30.5991 23.7345Q30.5811 23.8559 30.5571 23.9763Q30.5332 24.0966 30.5034 24.2157Q30.4736 24.3347 30.4379 24.4521Q30.4023 24.5696 30.361 24.6851Q30.3196 24.8007 30.2727 24.914Q30.2257 25.0274 30.1732 25.1383Q30.1208 25.2493 30.0629 25.3575Q30.0051 25.4657 29.942 25.571Q29.8789 25.6763 29.8107 25.7783Q29.7425 25.8803 29.6694 25.9789Q29.5963 26.0775 29.5185 26.1723Q29.4406 26.2672 29.3582 26.3581Q29.2758 26.449 29.189 26.5358Q29.1022 26.6226 29.0113 26.705Q28.9204 26.7874 28.8255 26.8653Q28.7307 26.9431 28.6321 27.0162Q28.5335 27.0893 28.4315 27.1575Q28.3295 27.2257 28.2242 27.2888Q28.1189 27.3519 28.0107 27.4097Q27.9025 27.4676 27.7915 27.52Q27.6806 27.5725 27.5672 27.6195Q27.4539 27.6664 27.3383 27.7078Q27.2228 27.7491 27.1053 27.7847Q26.9879 27.8204 26.8689 27.8502Q26.7498 27.88 26.6295 27.9039Q26.5091 27.9279 26.3877 27.9459Q26.2663 27.9639 26.1442 27.9759Q26.0221 27.988 25.8995 27.994Q25.7769 28 25.6542 28L6.319 28Q6.19628 28 6.07371 27.994Q5.95114 27.988 5.82901 27.9759Q5.70688 27.9639 5.58549 27.9459Q5.4641 27.9279 5.34374 27.9039Q5.22338 27.88 5.10434 27.8502Q4.9853 27.8204 4.86787 27.7847Q4.75043 27.7491 4.63489 27.7078Q4.51934 27.6664 4.40597 27.6195Q4.29259 27.5725 4.18165 27.52Q4.07072 27.4676 3.96249 27.4097Q3.85426 27.3519 3.749 27.2888Q3.64374 27.2257 3.5417 27.1575Q3.43967 27.0893 3.3411 27.0162Q3.24253 26.9431 3.14767 26.8653Q3.0528 26.7874 2.96188 26.705Q2.87095 26.6226 2.78417 26.5358Q2.6974 26.449 2.61498 26.3581Q2.53257 26.2672 2.45472 26.1723Q2.37687 26.0775 2.30377 25.9789Q2.23066 25.8803 2.16248 25.7783Q2.0943 25.6763 2.03121 25.571Q1.96812 25.4657 1.91028 25.3575Q1.85243 25.2493 1.79996 25.1383Q1.74749 25.0274 1.70053 24.914Q1.65356 24.8007 1.61222 24.6851Q1.57088 24.5696 1.53526 24.4521Q1.49963 24.3347 1.46981 24.2157Q1.44 24.0966 1.41605 23.9763Q1.39211 23.8559 1.37411 23.7345Q1.3561 23.6131 1.34407 23.491Q1.33204 23.3689 1.32602 23.2463Q1.32 23.1237 1.32 23.001L1.32 8.999Q1.32 8.87628 1.32602 8.75371Q1.33204 8.63114 1.34407 8.50901Q1.3561 8.38688 1.37411 8.26549Q1.39211 8.1441 1.41605 8.02374Q1.44 7.90338 1.46981 7.78434Q1.49963 7.6653 1.53526 7.54787Q1.57088 7.43043 1.61222 7.31489Q1.65356 7.19934 1.70053 7.08597Q1.74749 6.97259 1.79996 6.86165Q1.85243 6.75072 1.91028 6.64249Q1.96812 6.53426 2.03121 6.429Q2.0943 6.32374 2.16248 6.2217Q2.23066 6.11967 2.30377 6.0211Q2.37687 5.92253 2.45472 5.82767Q2.53257 5.73281 2.61498 5.64188Q2.6974 5.55095 2.78417 5.46417Q2.87095 5.3774 2.96188 5.29498Q3.0528 5.21257 3.14767 5.13472Q3.24253 5.05687 3.3411 4.98377Q3.43967 4.91066 3.5417 4.84248Q3.64374 4.7743 3.749 4.71121Q3.85426 4.64812 3.96249 4.59028Q4.07072 4.53243 4.18165 4.47996Q4.29259 4.42749 4.40597 4.38053Q4.51934 4.33356 4.63489 4.29222Q4.75043 4.25088 4.86787 4.21526Q4.9853 4.17963 5.10434 4.14981Q5.22338 4.12 5.34374 4.09605Q5.4641 4.07211 5.58549 4.05411Q5.70688 4.0361 5.82901 4.02407Q5.95114 4.01204 6.07371 4.00602Q6.19628 4 6.319 4Z" id="Rectángulo" fill="#047AFF" fill-rule="evenodd" stroke="none" />
    <path d="M29.32 4L2.65333 4C1.91695 4 1.32 4.59695 1.32 5.33333L1.32 26.6667C1.32 27.403 1.91695 28 2.65333 28L29.32 28C30.0564 28 30.6533 27.403 30.6533 26.6667L30.6533 5.33333C30.6533 4.59695 30.0564 4 29.32 4L29.32 4ZM27.9867 25.3333L3.98666 25.3333L3.98666 6.66667L8.60666 6.66667L10.8733 10.0733C11.1215 10.4453 11.5395 10.6681 11.9867 10.6667L19.9867 10.6667C20.4324 10.6667 20.8486 10.4441 21.096 10.0733L23.3667 6.66667L27.9867 6.66667L27.9867 25.3333ZM21.32 13.3333L10.6533 13.3333C8.4442 13.3333 6.65334 16.0196 6.65334 19.3333C6.65334 22.6471 8.4442 25.3333 10.6533 25.3333L21.32 25.3333C23.5291 25.3333 25.32 22.6471 25.32 19.3333C25.32 16.0196 23.5291 13.3333 21.32 13.3333L21.32 13.3333Z" id="Forma" fill="#000000" fill-rule="evenodd" stroke="none" />
    <path d="M20.1613 6.66666L19.2733 7.99999L12.7 7.99999L11.812 6.66666L20.1613 6.66666Z" id="Forma-Sendero" fill="#000000" stroke="none" />
    <path d="M10.6533 16C11.3897 16 11.9867 16.597 11.9867 17.3333C11.9867 18.0697 11.3897 18.6667 10.6533 18.6667C9.91695 18.6667 9.32 18.0697 9.32 17.3333C9.32 16.597 9.91695 16 10.6533 16L10.6533 16Z" id="Forma-Sendero" fill="#FFFFFF" stroke="none" />
    <path d="M17.5653 18.28C17.2382 20.0062 17.2382 21.9138 17.5653 23.64L14.408 23.64C14.7352 21.9138 14.7352 20.0062 14.408 18.28L17.5653 18.28Z" id="Forma-Sendero" fill="#FFFFFF" stroke="none" />
    <path d="M21.32 18.6667C20.5836 18.6667 19.9867 18.0697 19.9867 17.3333C19.9867 16.597 20.5836 16 21.32 16C22.0564 16 22.6533 16.597 22.6533 17.3333C22.6533 18.0697 22.0564 18.6667 21.32 18.6667L21.32 18.6667Z" id="Forma-Sendero" fill="#FFFFFF" stroke="none" />
  </g>
</svg>